<mxfile host="app.diagrams.net" modified="2024-06-17T10:37:45.029Z" agent="Mozilla/5.0 (Windows NT 10.0; Win64; x64) AppleWebKit/537.36 (KHTML, like Gecko) Chrome/123.0.0.0 Safari/537.36 OPR/109.0.0.0" version="24.5.4" etag="AkqEiJV-4fzMyq3SFBR0" type="github">
  <diagram name="Page-1" id="URuILYohO7nekbE5N3jr">
    <mxGraphModel>
      <root>
        <mxCell id="0" />
        <mxCell id="1" parent="0" />
      </root>
    </mxGraphModel>
  </diagram>
</mxfile>
